<mxfile host="app.diagrams.net" modified="2024-04-01T23:46:08.932Z" agent="Mozilla/5.0 (Windows NT 10.0; Win64; x64) AppleWebKit/537.36 (KHTML, like Gecko) Chrome/123.0.0.0 Safari/537.36 Edg/123.0.0.0" etag="KulhTPjwNae8P3DXQxSg" version="24.2.1" type="device">
  <diagram name="Página-1" id="XeGs-3ekrAyGM_uqNEwA">
    <mxGraphModel dx="872" dy="481" grid="1" gridSize="10" guides="1" tooltips="1" connect="1" arrows="1" fold="1" page="1" pageScale="1" pageWidth="827" pageHeight="1169" math="0" shadow="0">
      <root>
        <mxCell id="0" />
        <mxCell id="1" parent="0" />
        <mxCell id="wbPNoilc6B2j4DmPMTk_-3" value="" style="rounded=0;whiteSpace=wrap;html=1;" parent="1" vertex="1">
          <mxGeometry x="294" y="30" width="180" height="430" as="geometry" />
        </mxCell>
        <mxCell id="wbPNoilc6B2j4DmPMTk_-5" style="edgeStyle=orthogonalEdgeStyle;rounded=0;orthogonalLoop=1;jettySize=auto;html=1;entryX=0;entryY=0.5;entryDx=0;entryDy=0;" parent="1" source="wbPNoilc6B2j4DmPMTk_-1" target="wbPNoilc6B2j4DmPMTk_-4" edge="1">
          <mxGeometry relative="1" as="geometry">
            <Array as="points">
              <mxPoint x="250" y="125" />
              <mxPoint x="250" y="75" />
            </Array>
          </mxGeometry>
        </mxCell>
        <mxCell id="wbPNoilc6B2j4DmPMTk_-14" style="edgeStyle=orthogonalEdgeStyle;rounded=0;orthogonalLoop=1;jettySize=auto;html=1;entryX=0;entryY=0.5;entryDx=0;entryDy=0;" parent="1" source="wbPNoilc6B2j4DmPMTk_-1" target="wbPNoilc6B2j4DmPMTk_-9" edge="1">
          <mxGeometry relative="1" as="geometry">
            <Array as="points">
              <mxPoint x="250" y="125" />
              <mxPoint x="250" y="300" />
            </Array>
          </mxGeometry>
        </mxCell>
        <mxCell id="wbPNoilc6B2j4DmPMTk_-15" style="edgeStyle=orthogonalEdgeStyle;rounded=0;orthogonalLoop=1;jettySize=auto;html=1;entryX=0;entryY=0.5;entryDx=0;entryDy=0;" parent="1" source="wbPNoilc6B2j4DmPMTk_-1" target="wbPNoilc6B2j4DmPMTk_-7" edge="1">
          <mxGeometry relative="1" as="geometry">
            <Array as="points">
              <mxPoint x="250" y="125" />
              <mxPoint x="250" y="185" />
            </Array>
          </mxGeometry>
        </mxCell>
        <mxCell id="wbPNoilc6B2j4DmPMTk_-16" style="edgeStyle=orthogonalEdgeStyle;rounded=0;orthogonalLoop=1;jettySize=auto;html=1;entryX=0;entryY=0.5;entryDx=0;entryDy=0;" parent="1" source="wbPNoilc6B2j4DmPMTk_-1" target="wbPNoilc6B2j4DmPMTk_-6" edge="1">
          <mxGeometry relative="1" as="geometry" />
        </mxCell>
        <mxCell id="wbPNoilc6B2j4DmPMTk_-17" style="edgeStyle=orthogonalEdgeStyle;rounded=0;orthogonalLoop=1;jettySize=auto;html=1;entryX=0;entryY=0.5;entryDx=0;entryDy=0;" parent="1" source="wbPNoilc6B2j4DmPMTk_-1" target="wbPNoilc6B2j4DmPMTk_-10" edge="1">
          <mxGeometry relative="1" as="geometry">
            <Array as="points">
              <mxPoint x="250" y="125" />
              <mxPoint x="250" y="355" />
            </Array>
          </mxGeometry>
        </mxCell>
        <mxCell id="wbPNoilc6B2j4DmPMTk_-18" style="edgeStyle=orthogonalEdgeStyle;rounded=0;orthogonalLoop=1;jettySize=auto;html=1;entryX=0;entryY=0.5;entryDx=0;entryDy=0;" parent="1" source="wbPNoilc6B2j4DmPMTk_-1" target="wbPNoilc6B2j4DmPMTk_-11" edge="1">
          <mxGeometry relative="1" as="geometry">
            <Array as="points">
              <mxPoint x="250" y="125" />
              <mxPoint x="250" y="415" />
            </Array>
          </mxGeometry>
        </mxCell>
        <mxCell id="wbPNoilc6B2j4DmPMTk_-19" style="edgeStyle=orthogonalEdgeStyle;rounded=0;orthogonalLoop=1;jettySize=auto;html=1;entryX=0;entryY=0.5;entryDx=0;entryDy=0;" parent="1" source="wbPNoilc6B2j4DmPMTk_-1" target="wbPNoilc6B2j4DmPMTk_-8" edge="1">
          <mxGeometry relative="1" as="geometry">
            <Array as="points">
              <mxPoint x="250" y="125" />
              <mxPoint x="250" y="245" />
            </Array>
          </mxGeometry>
        </mxCell>
        <mxCell id="wbPNoilc6B2j4DmPMTk_-1" value="ADMIN" style="shape=umlActor;verticalLabelPosition=bottom;verticalAlign=top;html=1;outlineConnect=0;" parent="1" vertex="1">
          <mxGeometry x="170" y="95" width="30" height="60" as="geometry" />
        </mxCell>
        <mxCell id="wbPNoilc6B2j4DmPMTk_-12" style="edgeStyle=orthogonalEdgeStyle;rounded=0;orthogonalLoop=1;jettySize=auto;html=1;entryX=1;entryY=0.5;entryDx=0;entryDy=0;" parent="1" source="wbPNoilc6B2j4DmPMTk_-2" target="wbPNoilc6B2j4DmPMTk_-10" edge="1">
          <mxGeometry relative="1" as="geometry">
            <Array as="points">
              <mxPoint x="520" y="300" />
              <mxPoint x="520" y="355" />
            </Array>
          </mxGeometry>
        </mxCell>
        <mxCell id="wbPNoilc6B2j4DmPMTk_-13" style="edgeStyle=orthogonalEdgeStyle;rounded=0;orthogonalLoop=1;jettySize=auto;html=1;entryX=1;entryY=0.5;entryDx=0;entryDy=0;" parent="1" source="wbPNoilc6B2j4DmPMTk_-2" target="wbPNoilc6B2j4DmPMTk_-11" edge="1">
          <mxGeometry relative="1" as="geometry">
            <Array as="points">
              <mxPoint x="520" y="300" />
              <mxPoint x="520" y="415" />
            </Array>
          </mxGeometry>
        </mxCell>
        <mxCell id="wbPNoilc6B2j4DmPMTk_-2" value="Usuário" style="shape=umlActor;verticalLabelPosition=bottom;verticalAlign=top;html=1;outlineConnect=0;" parent="1" vertex="1">
          <mxGeometry x="560" y="270" width="30" height="60" as="geometry" />
        </mxCell>
        <mxCell id="wbPNoilc6B2j4DmPMTk_-4" value="CRUD" style="ellipse;whiteSpace=wrap;html=1;" parent="1" vertex="1">
          <mxGeometry x="310" y="50" width="80" height="50" as="geometry" />
        </mxCell>
        <mxCell id="wbPNoilc6B2j4DmPMTk_-6" value="Adicionar Cômodos" style="ellipse;whiteSpace=wrap;html=1;" parent="1" vertex="1">
          <mxGeometry x="380" y="100" width="80" height="50" as="geometry" />
        </mxCell>
        <mxCell id="wbPNoilc6B2j4DmPMTk_-7" value="Adicionar Tarefas" style="ellipse;whiteSpace=wrap;html=1;" parent="1" vertex="1">
          <mxGeometry x="310" y="160" width="80" height="50" as="geometry" />
        </mxCell>
        <mxCell id="wbPNoilc6B2j4DmPMTk_-8" value="&lt;font style=&quot;font-size: 13px;&quot;&gt;Atrelar Tarefas&lt;/font&gt;" style="ellipse;whiteSpace=wrap;html=1;" parent="1" vertex="1">
          <mxGeometry x="380" y="220" width="80" height="50" as="geometry" />
        </mxCell>
        <mxCell id="wbPNoilc6B2j4DmPMTk_-9" value="Programar Notificações" style="ellipse;whiteSpace=wrap;html=1;" parent="1" vertex="1">
          <mxGeometry x="310" y="275" width="80" height="50" as="geometry" />
        </mxCell>
        <mxCell id="wbPNoilc6B2j4DmPMTk_-10" value="&lt;font style=&quot;font-size: 11px;&quot;&gt;Consultar Estado da Tarefa&lt;/font&gt;" style="ellipse;whiteSpace=wrap;html=1;" parent="1" vertex="1">
          <mxGeometry x="374" y="330" width="80" height="50" as="geometry" />
        </mxCell>
        <mxCell id="wbPNoilc6B2j4DmPMTk_-11" value="Ver Tarefas" style="ellipse;whiteSpace=wrap;html=1;" parent="1" vertex="1">
          <mxGeometry x="310" y="390" width="80" height="50" as="geometry" />
        </mxCell>
      </root>
    </mxGraphModel>
  </diagram>
</mxfile>
